<mxfile host="app.diagrams.net" agent="Mozilla/5.0 (Windows NT 10.0; Win64; x64) AppleWebKit/537.36 (KHTML, like Gecko) Chrome/131.0.0.0 Safari/537.36 Edg/131.0.0.0" version="25.0.0">
  <diagram name="Page-1" id="GmPMYjKq_UFv6w7iRlwa">
    <mxGraphModel dx="4323" dy="2983" grid="1" gridSize="10" guides="1" tooltips="1" connect="1" arrows="1" fold="1" page="1" pageScale="1" pageWidth="850" pageHeight="1100" math="0" shadow="0">
      <root>
        <mxCell id="0" />
        <mxCell id="1" parent="0" />
        <mxCell id="beVSMLaLVpA4i5ECSLr1-1" value="" style="edgeStyle=orthogonalEdgeStyle;rounded=0;orthogonalLoop=1;jettySize=auto;html=1;" edge="1" parent="1" source="beVSMLaLVpA4i5ECSLr1-2">
          <mxGeometry relative="1" as="geometry">
            <mxPoint x="-564" y="-1000" as="targetPoint" />
          </mxGeometry>
        </mxCell>
        <mxCell id="beVSMLaLVpA4i5ECSLr1-2" value="&lt;font data-font-src=&quot;https://fonts.googleapis.com/css?family=Sarabun&quot; face=&quot;Sarabun&quot;&gt;Start&lt;/font&gt;" style="ellipse;whiteSpace=wrap;html=1;" vertex="1" parent="1">
          <mxGeometry x="-629.0000000000001" y="-1060" width="130" height="30" as="geometry" />
        </mxCell>
        <mxCell id="beVSMLaLVpA4i5ECSLr1-4" value="กำหนดตัวแปร arr output" style="rounded=0;whiteSpace=wrap;html=1;" vertex="1" parent="1">
          <mxGeometry x="-629.0000000000001" y="-790" width="130" height="40" as="geometry" />
        </mxCell>
        <mxCell id="beVSMLaLVpA4i5ECSLr1-5" value="" style="edgeStyle=orthogonalEdgeStyle;rounded=0;orthogonalLoop=1;jettySize=auto;html=1;" edge="1" parent="1">
          <mxGeometry relative="1" as="geometry">
            <mxPoint x="-564" y="-710" as="targetPoint" />
            <mxPoint x="-563.9655172413793" y="-750" as="sourcePoint" />
          </mxGeometry>
        </mxCell>
        <mxCell id="beVSMLaLVpA4i5ECSLr1-7" value="" style="edgeStyle=orthogonalEdgeStyle;rounded=0;orthogonalLoop=1;jettySize=auto;html=1;" edge="1" parent="1" source="beVSMLaLVpA4i5ECSLr1-8" target="beVSMLaLVpA4i5ECSLr1-13">
          <mxGeometry relative="1" as="geometry" />
        </mxCell>
        <mxCell id="beVSMLaLVpA4i5ECSLr1-8" value="กรอกตัวแปร input" style="rounded=0;whiteSpace=wrap;html=1;shape=parallelogram;perimeter=parallelogramPerimeter;fixedSize=1;" vertex="1" parent="1">
          <mxGeometry x="-630.0000000000001" y="-650" width="130" height="40" as="geometry" />
        </mxCell>
        <mxCell id="beVSMLaLVpA4i5ECSLr1-9" value="" style="edgeStyle=orthogonalEdgeStyle;rounded=0;orthogonalLoop=1;jettySize=auto;html=1;" edge="1" parent="1" source="beVSMLaLVpA4i5ECSLr1-10" target="beVSMLaLVpA4i5ECSLr1-8">
          <mxGeometry relative="1" as="geometry" />
        </mxCell>
        <mxCell id="beVSMLaLVpA4i5ECSLr1-10" value="" style="ellipse;whiteSpace=wrap;html=1;aspect=fixed;" vertex="1" parent="1">
          <mxGeometry x="-575" y="-710" width="20" height="20" as="geometry" />
        </mxCell>
        <mxCell id="beVSMLaLVpA4i5ECSLr1-11" style="edgeStyle=orthogonalEdgeStyle;rounded=0;orthogonalLoop=1;jettySize=auto;html=1;entryX=0;entryY=0.5;entryDx=0;entryDy=0;" edge="1" parent="1" source="beVSMLaLVpA4i5ECSLr1-13" target="beVSMLaLVpA4i5ECSLr1-10">
          <mxGeometry relative="1" as="geometry">
            <Array as="points">
              <mxPoint x="-690" y="-530" />
              <mxPoint x="-690" y="-700" />
            </Array>
          </mxGeometry>
        </mxCell>
        <mxCell id="beVSMLaLVpA4i5ECSLr1-30" value="" style="edgeStyle=orthogonalEdgeStyle;rounded=0;orthogonalLoop=1;jettySize=auto;html=1;" edge="1" parent="1" source="beVSMLaLVpA4i5ECSLr1-13">
          <mxGeometry relative="1" as="geometry">
            <mxPoint x="-565" y="-440" as="targetPoint" />
          </mxGeometry>
        </mxCell>
        <mxCell id="beVSMLaLVpA4i5ECSLr1-13" value="กรอก -1 หรือไม่" style="rhombus;whiteSpace=wrap;html=1;" vertex="1" parent="1">
          <mxGeometry x="-629" y="-570" width="128" height="80" as="geometry" />
        </mxCell>
        <mxCell id="beVSMLaLVpA4i5ECSLr1-14" value="" style="edgeStyle=orthogonalEdgeStyle;rounded=0;orthogonalLoop=1;jettySize=auto;html=1;" edge="1" parent="1" source="beVSMLaLVpA4i5ECSLr1-15" target="beVSMLaLVpA4i5ECSLr1-17">
          <mxGeometry relative="1" as="geometry" />
        </mxCell>
        <mxCell id="beVSMLaLVpA4i5ECSLr1-15" value="ปริ้นค่า arr input" style="rounded=0;whiteSpace=wrap;html=1;shape=parallelogram;perimeter=parallelogramPerimeter;fixedSize=1;" vertex="1" parent="1">
          <mxGeometry x="-628.0000000000001" y="-280" width="130" height="40" as="geometry" />
        </mxCell>
        <mxCell id="beVSMLaLVpA4i5ECSLr1-16" value="" style="edgeStyle=orthogonalEdgeStyle;rounded=0;orthogonalLoop=1;jettySize=auto;html=1;" edge="1" parent="1" source="beVSMLaLVpA4i5ECSLr1-17" target="beVSMLaLVpA4i5ECSLr1-18">
          <mxGeometry relative="1" as="geometry" />
        </mxCell>
        <mxCell id="beVSMLaLVpA4i5ECSLr1-17" value="ปริ้นค่า arr output" style="rounded=0;whiteSpace=wrap;html=1;shape=parallelogram;perimeter=parallelogramPerimeter;fixedSize=1;" vertex="1" parent="1">
          <mxGeometry x="-628.0000000000001" y="-200" width="130" height="40" as="geometry" />
        </mxCell>
        <mxCell id="beVSMLaLVpA4i5ECSLr1-18" value="&lt;font face=&quot;Sarabun&quot;&gt;END&lt;/font&gt;" style="ellipse;whiteSpace=wrap;html=1;" vertex="1" parent="1">
          <mxGeometry x="-628.0000000000001" y="-110" width="130" height="30" as="geometry" />
        </mxCell>
        <mxCell id="beVSMLaLVpA4i5ECSLr1-19" value="F" style="text;html=1;align=center;verticalAlign=middle;resizable=0;points=[];autosize=1;strokeColor=none;fillColor=none;" vertex="1" parent="1">
          <mxGeometry x="-650" y="-560" width="30" height="30" as="geometry" />
        </mxCell>
        <mxCell id="beVSMLaLVpA4i5ECSLr1-20" value="T" style="text;html=1;align=center;verticalAlign=middle;resizable=0;points=[];autosize=1;strokeColor=none;fillColor=none;" vertex="1" parent="1">
          <mxGeometry x="-555" y="-500" width="30" height="30" as="geometry" />
        </mxCell>
        <mxCell id="beVSMLaLVpA4i5ECSLr1-26" style="edgeStyle=orthogonalEdgeStyle;rounded=0;orthogonalLoop=1;jettySize=auto;html=1;entryX=0.5;entryY=0;entryDx=0;entryDy=0;" edge="1" parent="1" source="beVSMLaLVpA4i5ECSLr1-22">
          <mxGeometry relative="1" as="geometry">
            <mxPoint x="-563.0000000000001" y="-790" as="targetPoint" />
          </mxGeometry>
        </mxCell>
        <mxCell id="beVSMLaLVpA4i5ECSLr1-22" value="กำหนดตัวแปร arr input" style="rounded=0;whiteSpace=wrap;html=1;" vertex="1" parent="1">
          <mxGeometry x="-628.0000000000001" y="-860" width="130" height="40" as="geometry" />
        </mxCell>
        <mxCell id="beVSMLaLVpA4i5ECSLr1-37" value="" style="edgeStyle=orthogonalEdgeStyle;rounded=0;orthogonalLoop=1;jettySize=auto;html=1;" edge="1" parent="1" source="beVSMLaLVpA4i5ECSLr1-31" target="beVSMLaLVpA4i5ECSLr1-36">
          <mxGeometry relative="1" as="geometry" />
        </mxCell>
        <mxCell id="beVSMLaLVpA4i5ECSLr1-31" value="input เรียงจากน้อยไปมาก" style="rounded=0;whiteSpace=wrap;html=1;" vertex="1" parent="1">
          <mxGeometry x="-629.0000000000001" y="-440" width="130" height="40" as="geometry" />
        </mxCell>
        <mxCell id="beVSMLaLVpA4i5ECSLr1-33" value="" style="edgeStyle=orthogonalEdgeStyle;rounded=0;orthogonalLoop=1;jettySize=auto;html=1;" edge="1" parent="1" source="beVSMLaLVpA4i5ECSLr1-32" target="beVSMLaLVpA4i5ECSLr1-22">
          <mxGeometry relative="1" as="geometry" />
        </mxCell>
        <mxCell id="beVSMLaLVpA4i5ECSLr1-32" value="กำหนดตัวแปร swap" style="rounded=0;whiteSpace=wrap;html=1;" vertex="1" parent="1">
          <mxGeometry x="-628.0000000000001" y="-930" width="130" height="40" as="geometry" />
        </mxCell>
        <mxCell id="beVSMLaLVpA4i5ECSLr1-35" value="" style="edgeStyle=orthogonalEdgeStyle;rounded=0;orthogonalLoop=1;jettySize=auto;html=1;" edge="1" parent="1" source="beVSMLaLVpA4i5ECSLr1-34" target="beVSMLaLVpA4i5ECSLr1-32">
          <mxGeometry relative="1" as="geometry" />
        </mxCell>
        <mxCell id="beVSMLaLVpA4i5ECSLr1-34" value="กำหนดตัวแปร n" style="rounded=0;whiteSpace=wrap;html=1;" vertex="1" parent="1">
          <mxGeometry x="-629.0000000000001" y="-1000" width="130" height="40" as="geometry" />
        </mxCell>
        <mxCell id="beVSMLaLVpA4i5ECSLr1-38" value="" style="edgeStyle=orthogonalEdgeStyle;rounded=0;orthogonalLoop=1;jettySize=auto;html=1;" edge="1" parent="1" source="beVSMLaLVpA4i5ECSLr1-36" target="beVSMLaLVpA4i5ECSLr1-15">
          <mxGeometry relative="1" as="geometry" />
        </mxCell>
        <mxCell id="beVSMLaLVpA4i5ECSLr1-36" value="output เรียงจากมากไปน้อย" style="rounded=0;whiteSpace=wrap;html=1;" vertex="1" parent="1">
          <mxGeometry x="-634" y="-360" width="142" height="40" as="geometry" />
        </mxCell>
      </root>
    </mxGraphModel>
  </diagram>
</mxfile>
